<svg width="17" height="19" viewBox="0 0 17 19" fill="none" xmlns="http://www.w3.org/2000/svg">
<path d="M14.6113 2.72656H13.75V0.962891H11.9863V2.72656H5.01367V0.962891H3.25V2.72656H2.38867C1.4043 2.72656 0.625 3.50586 0.625 4.49023V16.7129C0.625 17.6973 1.4043 18.4766 2.38867 18.4766H14.6113C15.5957 18.4766 16.375 17.6973 16.375 16.7129V4.49023C16.375 3.50586 15.5957 2.72656 14.6113 2.72656ZM14.6113 16.7129H2.38867V7.97656H14.6113V16.7129ZM2.38867 6.21289V4.49023H14.6113V6.21289H2.38867ZM5.21875 14.457L6.12109 15.4004L8.25391 13.2676L10.3867 15.4004L11.3301 14.457L9.19727 12.3242L11.3301 10.1914L10.3867 9.24805L8.25391 11.3809L6.12109 9.24805L5.21875 10.1914L7.35156 12.3242L5.21875 14.457Z" fill="#1301FF"/>
</svg>
